<svg xmlns="http://www.w3.org/2000/svg" viewBox="0 0 512 512">
  <defs>
    <linearGradient id="bg" x1="0" y1="0" x2="0" y2="1">
      <stop offset="0" stop-color="#2d879d"/>
      <stop offset="1" stop-color="#1f404d"/>
    </linearGradient>
    <linearGradient id="fish" x1="0" y1="0" x2="0" y2="1">
      <stop offset="0" stop-color="#eef7f9"/>
      <stop offset="1" stop-color="#aedbe4"/>
    </linearGradient>
  </defs>
  <rect width="512" height="512" rx="116" fill="url(#bg)"/>
  <!-- water ripples -->
  <path d="M60 380 q40 -18 80 0 t80 0 t80 0 t80 0 t80 0" fill="none" stroke="#7cc2d1" stroke-width="14" stroke-linecap="round" opacity="0.5"/>
  <path d="M60 424 q40 -18 80 0 t80 0 t80 0 t80 0 t80 0" fill="none" stroke="#7cc2d1" stroke-width="14" stroke-linecap="round" opacity="0.3"/>
  <!-- fish body -->
  <path d="M84 236 C120 176 190 140 268 140 C346 140 404 180 428 228 C408 240 388 244 368 242 C336 288 288 312 232 310 C164 308 108 280 84 236 Z" fill="url(#fish)"/>
  <!-- tail -->
  <path d="M84 236 C64 210 48 178 44 148 C84 160 118 182 138 208 C114 216 96 226 84 236 Z" fill="url(#fish)"/>
  <path d="M84 236 C68 260 58 288 56 316 C92 302 120 280 136 254 C116 248 98 242 84 236 Z" fill="url(#fish)"/>
  <!-- dorsal fin -->
  <path d="M220 148 C240 118 274 102 308 106 C296 124 290 142 288 158 C264 148 240 146 220 148 Z" fill="#d5ecf1"/>
  <!-- eye -->
  <circle cx="352" cy="204" r="26" fill="#0f2934"/>
  <circle cx="362" cy="194" r="9" fill="#ffffff"/>
  <!-- gill -->
  <path d="M310 168 C328 194 328 240 312 268" fill="none" stroke="#48a3b8" stroke-width="12" stroke-linecap="round" opacity="0.7"/>
</svg>
