<svg xmlns="http://www.w3.org/2000/svg" viewBox="0 0 320 200" role="img" aria-label="Regenbogenforelle">
  <defs>
    <linearGradient id="rgb" x1="0" y1="0" x2="0" y2="1">
      <stop offset="0" stop-color="#44584a"/>
      <stop offset="0.45" stop-color="#93a894"/>
      <stop offset="0.72" stop-color="#e0e6da"/>
      <stop offset="1" stop-color="#f8faf5"/>
    </linearGradient>
  </defs>
  <!-- tail: speckled -->
  <path d="M258 100 C272 88 284 84 294 86 C290 94 290 108 294 116 C284 118 272 112 258 102 Z" fill="#7a8a72" stroke="#3d4a3c" stroke-width="2" stroke-linejoin="round"/>
  <g fill="#2e3826" opacity="0.8">
    <circle cx="272" cy="94" r="1.6"/><circle cx="282" cy="90" r="1.6"/><circle cx="278" cy="102" r="1.6"/><circle cx="286" cy="98" r="1.4"/><circle cx="274" cy="110" r="1.6"/><circle cx="284" cy="108" r="1.4"/>
  </g>
  <!-- body -->
  <path d="M24 100 C36 84 62 72 98 68 C144 63 192 70 224 82 C240 88 250 95 252 100 C250 106 242 112 228 117 C198 128 152 133 106 129 C68 126 38 116 24 100 Z" fill="url(#rgb)" stroke="#3d4a3c" stroke-width="2.5"/>
  <!-- pink lateral band (key marker) -->
  <path d="M60 96 C120 88 190 90 240 98 C238 104 232 108 222 112 C180 104 120 102 64 106 C60 103 58 100 60 96 Z" fill="#d88a99" opacity="0.65"/>
  <!-- dorsal fin: speckled -->
  <path d="M132 68 L141 44 L158 47 C153 56 150 65 149 75 Z" fill="#7a8a72" stroke="#3d4a3c" stroke-width="2" stroke-linejoin="round"/>
  <circle cx="142" cy="56" r="1.5" fill="#2e3826"/><circle cx="148" cy="62" r="1.5" fill="#2e3826"/><circle cx="146" cy="50" r="1.4" fill="#2e3826"/>
  <!-- adipose fin -->
  <path d="M212 82 C218 76 226 76 230 80 C227 84 226 88 226 91 L214 88 Z" fill="#7a8a72" stroke="#3d4a3c" stroke-width="1.8" stroke-linejoin="round"/>
  <!-- anal fin -->
  <path d="M196 122 C201 133 212 138 222 135 C218 128 216 121 215 115 Z" fill="#7a8a72" stroke="#3d4a3c" stroke-width="2" stroke-linejoin="round"/>
  <!-- pelvic -->
  <path d="M140 127 C144 138 154 143 163 141 C159 134 157 128 156 122 Z" fill="#8a9a82" stroke="#3d4a3c" stroke-width="1.8" stroke-linejoin="round"/>
  <!-- pectoral -->
  <path d="M90 108 C96 118 107 122 115 120 C111 113 109 108 108 103 Z" fill="#8a9a82" stroke="#3d4a3c" stroke-width="1.8" stroke-linejoin="round"/>
  <!-- dense small black speckles over body -->
  <g fill="#2e3826" opacity="0.8">
    <circle cx="100" cy="78" r="1.7"/><circle cx="114" cy="84" r="1.7"/><circle cx="128" cy="76" r="1.7"/><circle cx="142" cy="84" r="1.7"/>
    <circle cx="156" cy="76" r="1.7"/><circle cx="170" cy="84" r="1.7"/><circle cx="184" cy="78" r="1.7"/><circle cx="198" cy="86" r="1.7"/>
    <circle cx="212" cy="80" r="1.7"/><circle cx="226" cy="88" r="1.6"/><circle cx="238" cy="94" r="1.5"/><circle cx="108" cy="92" r="1.6"/>
    <circle cx="136" cy="94" r="1.6"/><circle cx="164" cy="92" r="1.6"/><circle cx="192" cy="94" r="1.6"/><circle cx="218" cy="96" r="1.5"/>
    <circle cx="122" cy="110" r="1.5"/><circle cx="152" cy="112" r="1.5"/><circle cx="182" cy="112" r="1.5"/><circle cx="208" cy="110" r="1.4"/>
    <circle cx="88" cy="84" r="1.6"/><circle cx="74" cy="90" r="1.5"/>
  </g>
  <!-- pink gill cover blush -->
  <ellipse cx="76" cy="98" rx="12" ry="16" fill="#d88a99" opacity="0.55"/>
  <path d="M84 76 C94 86 94 112 85 122" fill="none" stroke="#3d4a3c" stroke-width="2" stroke-linecap="round"/>
  <!-- mouth -->
  <path d="M24 100 C36 94 50 90 64 89" fill="none" stroke="#3d4a3c" stroke-width="2.4" stroke-linecap="round"/>
  <!-- eye -->
  <circle cx="58" cy="86" r="6.5" fill="#e2e0c4"/>
  <circle cx="58" cy="86" r="3.3" fill="#1d2014"/>
  <circle cx="59.4" cy="84.6" r="1.1" fill="#ffffff"/>
</svg>
